<svg width="97" height="97" viewBox="0 0 97 97" fill="none" xmlns="http://www.w3.org/2000/svg">
<path d="M37.5 1.5625C33.1109 1.5625 29.3359 4.15469 27.5938 7.88594C27.2516 7.85313 26.9125 7.8125 26.5625 7.8125C20.5219 7.8125 15.625 12.7094 15.625 18.75V19.4094C13.1766 20.4813 11.4141 22.7734 11.0437 25.5141L10.9375 25.4531C6.41875 26.7984 3.125 30.9828 3.125 35.9375C3.125 38.0422 3.72969 40.0016 4.76094 41.6703C2.77812 43.8828 1.5625 46.7953 1.5625 50C1.5625 53.6625 3.14375 56.9516 5.65469 59.2375C5.03281 60.7234 4.6875 62.3516 4.6875 64.0625C4.6875 70.4375 9.45937 75.6969 15.625 76.4656V76.4625V76.5625H16.2156C17.3313 79.7203 20.0547 82.1141 23.4359 82.6828L23.4594 82.3953C23.4547 82.5359 23.4375 82.6719 23.4375 82.8125C23.4375 89.7156 29.0344 95.3125 35.9375 95.3125C42.8406 95.3125 48.4375 89.7156 48.4375 82.8125V12.5C48.4375 6.45937 43.5406 1.5625 37.5 1.5625ZM15.625 57.7422V57.8125C15.6094 57.8547 15.6125 57.8203 15.625 57.7422Z" fill="#C977FA"/>
<path d="M77.2504 24.6115L77.0549 30.8584L73.9314 30.7607L74.1269 24.5137C74.1538 23.6532 73.4746 22.93 72.614 22.9031L61.6819 22.561L61.7797 19.4375L72.7118 19.7796C75.2949 19.8605 77.3312 22.0284 77.2504 24.6115Z" fill="#F183D5"/>
<path d="M57.453 71.0155L57.3417 64.7665L60.4662 64.7108L60.5775 70.9598C60.5928 71.8206 61.3068 72.5096 62.1676 72.4943L73.1034 72.2995L73.159 75.424L62.2232 75.6188C59.6393 75.6648 57.499 73.5994 57.453 71.0155Z" fill="#F183D5"/>
<path d="M58.125 25.8125C55.5406 25.8125 53.4375 23.7094 53.4375 21.125C53.4375 18.5406 55.5406 16.4375 58.125 16.4375C60.7094 16.4375 62.8125 18.5406 62.8125 21.125C62.8125 23.7094 60.7094 25.8125 58.125 25.8125ZM58.125 19.5625C57.2641 19.5625 56.5625 20.2641 56.5625 21.125C56.5625 21.9859 57.2641 22.6875 58.125 22.6875C58.9859 22.6875 59.6875 21.9859 59.6875 21.125C59.6875 20.2641 58.9859 19.5625 58.125 19.5625Z" fill="#F183D5"/>
<path d="M59.125 66.8125C56.5406 66.8125 54.4375 64.7094 54.4375 62.125C54.4375 59.5406 56.5406 57.4375 59.125 57.4375C61.7094 57.4375 63.8125 59.5406 63.8125 62.125C63.8125 64.7094 61.7094 66.8125 59.125 66.8125ZM59.125 60.5625C58.2641 60.5625 57.5625 61.2641 57.5625 62.125C57.5625 62.9859 58.2641 63.6875 59.125 63.6875C59.9859 63.6875 60.6875 62.9859 60.6875 62.125C60.6875 61.2641 59.9859 60.5625 59.125 60.5625Z" fill="#F183D5"/>
<path d="M85.2365 54.4792C82.9007 53.3731 81.9 50.5723 83.0061 48.2365C84.1121 45.9008 86.913 44.9001 89.2487 46.0061C91.5845 47.1122 92.5852 49.913 91.4791 52.2488C90.3731 54.5845 87.5722 55.5852 85.2365 54.4792ZM87.9113 48.8305C87.1332 48.462 86.1989 48.7958 85.8304 49.5739C85.462 50.352 85.7958 51.2864 86.5739 51.6548C87.352 52.0233 88.2863 51.6895 88.6548 50.9114C89.0232 50.1332 88.6894 49.1989 87.9113 48.8305Z" fill="#F183D5"/>
<path d="M75.125 38.8125C72.5406 38.8125 70.4375 36.7094 70.4375 34.125C70.4375 31.5406 72.5406 29.4375 75.125 29.4375C77.7094 29.4375 79.8125 31.5406 79.8125 34.125C79.8125 36.7094 77.7094 38.8125 75.125 38.8125ZM75.125 32.5625C74.2641 32.5625 73.5625 33.2641 73.5625 34.125C73.5625 34.9859 74.2641 35.6875 75.125 35.6875C75.9859 35.6875 76.6875 34.9859 76.6875 34.125C76.6875 33.2641 75.9859 32.5625 75.125 32.5625Z" fill="#F183D5"/>
<path d="M75.125 77.8125C72.5406 77.8125 70.4375 75.7094 70.4375 73.125C70.4375 70.5406 72.5406 68.4375 75.125 68.4375C77.7094 68.4375 79.8125 70.5406 79.8125 73.125C79.8125 75.7094 77.7094 77.8125 75.125 77.8125ZM75.125 71.5625C74.2641 71.5625 73.5625 72.2641 73.5625 73.125C73.5625 73.9859 74.2641 74.6875 75.125 74.6875C75.9859 74.6875 76.6875 73.9859 76.6875 73.125C76.6875 72.2641 75.9859 71.5625 75.125 71.5625Z" fill="#F183D5"/>
<path d="M76.5625 54.6875H73.4375V70.3125H76.5625V54.6875Z" fill="#F183D5"/>
<path d="M76.5625 37.4375H73.4375V62.4375H76.5625V37.4375Z" fill="#F183D5"/>
<path d="M60 25H57V32H60V25Z" fill="#F183D5"/>
<path d="M74 49V52H84V49H74Z" fill="#F183D5"/>
<path d="M54 51V54H61V51H54Z" fill="#F183D5"/>
<path d="M62 51V54H65V51H62Z" fill="#F183D5"/>
<path d="M58 41V44H61V41H58Z" fill="#F183D5"/>
<path d="M62 41V44H65V41H62Z" fill="#F183D5"/>
<path d="M54 46V49H57V46H54Z" fill="#F183D5"/>
<path d="M58 46V49H65V46H58Z" fill="#F183D5"/>
<path d="M54 41V44H57V41H54Z" fill="#F183D5"/>
<path d="M54 36V39H57V36H54Z" fill="#F183D5"/>
<path d="M58 36V39H65V36H58Z" fill="#F183D5"/>
<path d="M61.0355 61L61 63.9998L75.999 64.1771L76.0344 61.1773L61.0355 61Z" fill="#F183D5"/>
<path d="M55.9094 0.573437C53.6438 0.225 51.3469 0.876563 49.6063 2.36719C48.7172 3.12813 48.0266 4.06875 47.5609 5.11094C45.2812 2.01875 41.6266 0 37.5 0C32.8812 0 28.85 2.52344 26.6859 6.25938C26.6453 6.25781 26.6031 6.25 26.5625 6.25C19.7719 6.25 14.2406 11.6953 14.0781 18.4469C11.9109 19.7 10.2953 21.7906 9.66875 24.2766C4.86563 26.0953 1.5625 30.7469 1.5625 35.9375C1.5625 37.8672 2.01562 39.7687 2.87812 41.4984C1.01406 43.9422 0 46.9203 0 50C0 53.6031 1.39219 57.0484 3.84531 59.6484C3.38437 61.0375 3.125 62.5203 3.125 64.0625C3.125 71.0062 8.21875 76.8969 15.0328 77.9469C16.3219 80.8109 18.8094 83.0266 21.9312 83.9297C22.5047 91.1625 28.5609 96.875 35.9375 96.875C40.6 96.875 44.7281 94.5844 47.2875 91.0797C47.7328 92.3953 48.525 93.5828 49.6047 94.5078C51.0375 95.7344 52.8453 96.3953 54.7031 96.3953C55.1031 96.3953 55.5062 96.3641 55.9078 96.3016C79.6469 92.6266 96.875 72.4953 96.875 48.4375C96.875 24.3797 79.6469 4.24844 55.9094 0.573437ZM35.9375 93.75C29.9062 93.75 25 88.8438 25 82.8125C25 76.7812 29.9062 71.875 35.9375 71.875V68.75C28.9188 68.75 23.1 73.9266 22.0578 80.6578C19.1641 79.4875 17.1875 76.6844 17.1875 73.4375C17.1875 69.1297 20.6922 65.625 25 65.625V62.5C18.9688 62.5 14.0625 67.4062 14.0625 73.4375C14.0625 73.8156 14.0859 74.1875 14.1234 74.5563C9.53594 73.2203 6.25 68.9812 6.25 64.0625C6.25 58.0312 11.1562 53.125 17.1875 53.125V50C12.1937 50 7.81094 52.625 5.31562 56.5578C3.90781 54.6797 3.125 52.3828 3.125 50C3.125 47.3156 4.11875 44.7281 5.925 42.7125L6.70469 41.8422L6.09062 40.8484C5.17344 39.3641 4.6875 37.6656 4.6875 35.9375C4.6875 32.5328 6.58594 29.4406 9.46562 27.8C10.075 32.3859 14.0016 35.9375 18.75 35.9375V32.8125C15.3031 32.8125 12.5 30.0094 12.5 26.5625C12.5 23.1156 15.3031 20.3125 18.75 20.3125C22.1969 20.3125 25 23.1156 25 26.5625H28.125C28.125 21.3922 23.9203 17.1875 18.75 17.1875C18.2594 17.1875 17.7812 17.2375 17.3094 17.3094C17.9469 13.2047 21.2484 9.97656 25.3906 9.45625C25.1453 10.4328 25 11.4484 25 12.5C25 19.3922 30.6078 25 37.5 25V21.875C32.3297 21.875 28.125 17.6703 28.125 12.5C28.125 7.32969 32.3297 3.125 37.5 3.125C42.6703 3.125 46.875 7.32969 46.875 12.5V82.8125C46.875 88.8438 41.9688 93.75 35.9375 93.75ZM55.4297 93.2141C54.0687 93.4297 52.6859 93.0312 51.6391 92.1359C50.5969 91.2422 50 89.9437 50 88.575V8.3C50 6.92969 50.5969 5.63125 51.6391 4.73906C52.5 4.00156 53.5891 3.60469 54.7063 3.60469C54.9469 3.60469 55.1891 3.62344 55.4313 3.66094C77.2766 7.04375 93.75 26.2938 93.75 48.4375C93.75 70.5813 77.2766 89.8313 55.4297 93.2141Z" fill="#3C4E97"/>
</svg>
